<svg id="Capa_1" enable-background="new 0 0 511.967 511.967" height="512" viewBox="0 0 511.967 511.967" width="512" xmlns="http://www.w3.org/2000/svg"><g><g><path d="m492.473 452.353h-1.654v-9.396c0-9.474-7.707-17.181-17.181-17.181h-4.028v-11.464c0-8.009-5.517-14.736-12.944-16.63l-7.432-177.944c3.771-3.154 6.177-7.889 6.177-13.178v-8.954l17.529 12.057c7.907 5.438 18.766 3.432 24.207-4.477l11.228-16.324c2.635-3.831 3.62-8.458 2.774-13.03s-3.421-8.541-7.252-11.175l-232.44-159.88c-9.258-6.369-21.699-6.369-30.957 0l-232.441 159.879c-7.907 5.438-9.916 16.296-4.479 24.206l11.229 16.324c2.635 3.831 6.604 6.406 11.177 7.251 1.067.198 2.139.295 3.202.295 3.487 0 6.892-1.051 9.827-3.07l17.529-12.057v8.954c0 5.29 2.407 10.026 6.179 13.18l-7.433 177.943c-7.428 1.894-12.944 8.621-12.944 16.63v11.464h-4.028c-9.474 0-17.181 7.707-17.181 17.181v9.396h-1.653c-9.474 0-17.181 7.707-17.181 17.181v25.253c0 9.474 7.707 17.181 17.181 17.181h472.99c9.473 0 17.18-7.707 17.18-17.181v-25.253c-.001-9.474-7.708-17.181-17.181-17.181zm-132.656-26.577v-11.464c0-1.202.979-2.18 2.181-2.18h90.432c1.202 0 2.181.978 2.181 2.18v11.464zm-221.878-219.216c0 1.202-.979 2.18-2.181 2.18h-62.033c-1.202 0-2.181-.978-2.181-2.18v-17.514h66.395zm-6.021 17.18 7.236 173.392h-68.829l7.244-173.392zm22.271 173.941-7.426-177.944c3.771-3.154 6.176-7.889 6.176-13.177v-17.514h54.842v17.514c0 5.289 2.406 10.024 6.177 13.178l-7.432 177.945c-7.428 1.894-12.944 8.621-12.944 16.63v11.464h-26.443v-11.464c-.001-8.012-5.52-14.74-12.95-16.632zm74.614-173.941h54.35l7.241 173.392h-68.832zm60.371-17.18c0 1.202-.979 2.18-2.181 2.18h-62.032c-1.202 0-2.181-.978-2.181-2.18v-17.514h66.394zm-80.592 207.752c0-1.202.979-2.18 2.181-2.18h90.431c1.202 0 2.181.978 2.181 2.18v11.464h-94.792v-11.464zm96.847-16.63-7.432-177.945c3.771-3.154 6.177-7.889 6.177-13.178v-17.514h54.843v17.514c0 5.289 2.406 10.023 6.176 13.177l-1.127 26.994c-.173 4.139 3.042 7.634 7.181 7.807.106.004.212.006.318.006 3.997 0 7.319-3.155 7.487-7.187l.986-23.617h54.35l7.242 173.392h-68.832l4.776-114.381c.173-4.139-3.042-7.634-7.181-7.807-4.102-.167-7.634 3.042-7.806 7.181l-4.825 115.557c-7.428 1.894-12.945 8.621-12.945 16.63v11.464h-26.443v-11.464c0-8.008-5.517-14.735-12.945-16.629zm134.982-191.122c0 1.202-.979 2.18-2.181 2.18h-62.033c-1.202 0-2.18-.978-2.18-2.18v-17.514h66.394zm-409.896-9.256c-.716.491-1.438.451-1.802.383-.366-.067-1.054-.288-1.545-1.002l-11.228-16.323c-.752-1.093-.474-2.595.619-3.347l232.442-159.88c4.174-2.871 9.781-2.871 13.955 0l232.441 159.879c.714.492.935 1.179 1.002 1.545s.108 1.087-.384 1.802l-11.227 16.323c-.752 1.092-2.253 1.372-3.349.62l-87.354-60.085c-3.411-2.349-8.083-1.484-10.43 1.929s-1.483 8.083 1.93 10.43l35.573 24.468h-330.361l165.18-113.616 100.583 69.183c3.412 2.349 8.082 1.483 10.43-1.929 2.347-3.413 1.483-8.083-1.93-10.43l-104.833-72.106c-2.559-1.761-5.941-1.761-8.5 0zm26.83 217.008c0-1.202.979-2.18 2.181-2.18h90.432c1.202 0 2.181.978 2.181 2.18v11.464h-94.794zm437.308 80.474c0 1.203-.978 2.181-2.18 2.181h-472.99c-1.202 0-2.181-.978-2.181-2.181v-25.253c0-1.203.979-2.181 2.181-2.181h48.344c4.143 0 7.5-3.358 7.5-7.5s-3.357-7.5-7.5-7.5h-31.69v-9.396c0-1.203.979-2.181 2.181-2.181h435.321c1.202 0 2.181.978 2.181 2.181v9.396h-372.598c-4.143 0-7.5 3.358-7.5 7.5s3.357 7.5 7.5 7.5h389.251c1.202 0 2.18.978 2.18 2.181z"/><path d="m292.299 126.869h-.103v-18.883c1.906-1.36 3.153-3.584 3.153-6.105 0-4.142-3.357-7.5-7.5-7.5h-24.378c-.063-4.087-3.391-7.383-7.494-7.383s-7.431 3.295-7.494 7.383h-24.379c-4.143 0-7.5 3.358-7.5 7.5 0 2.52 1.247 4.745 3.153 6.105v18.883h-.102c-4.143 0-7.5 3.358-7.5 7.5s3.357 7.5 7.5 7.5h15.204c4.143 0 7.5-3.358 7.5-7.5s-3.357-7.5-7.5-7.5h-.103v-17.488h13.72v36.865h-8.381c-4.143 0-7.5 3.358-7.5 7.5s3.357 7.5 7.5 7.5h31.761c4.143 0 7.5-3.358 7.5-7.5s-3.357-7.5-7.5-7.5h-8.38v-36.865h13.719v17.488h-.103c-4.143 0-7.5 3.358-7.5 7.5s3.357 7.5 7.5 7.5h15.205c4.143 0 7.5-3.358 7.5-7.5s-3.355-7.5-7.498-7.5z"/></g></g></svg>